<svg width="112" height="23" fill="none" xmlns="http://www.w3.org/2000/svg"><path d="M20.11 22l-.03-13.92-6.9 11.52h-1.74L4.54 8.26V22H.82V1h3.21l8.34 13.92L20.56 1h3.21l.03 21h-3.69zm19.172.3c-2.14 0-4.07-.46-5.79-1.38-1.72-.94-3.07-2.23-4.05-3.87-.98-1.66-1.47-3.51-1.47-5.55s.49-3.88 1.47-5.52c.98-1.66 2.33-2.95 4.05-3.87 1.72-.94 3.65-1.41 5.79-1.41s4.07.47 5.79 1.41c1.72.92 3.07 2.2 4.05 3.84.98 1.64 1.47 3.49 1.47 5.55 0 2.06-.49 3.91-1.47 5.55-.98 1.64-2.33 2.93-4.05 3.87-1.72.92-3.65 1.38-5.79 1.38zm0-3.42c1.4 0 2.66-.31 3.78-.93 1.12-.64 2-1.52 2.64-2.64.64-1.14.96-2.41.96-3.81s-.32-2.66-.96-3.78a6.703 6.703 0 00-2.64-2.64c-1.12-.64-2.38-.96-3.78-.96s-2.66.32-3.78.96c-1.12.62-2 1.5-2.64 2.64-.64 1.12-.96 2.38-.96 3.78s.32 2.67.96 3.81c.64 1.12 1.52 2 2.64 2.64 1.12.62 2.38.93 3.78.93zM73.252 1l-9.15 21h-3.84l-9.18-21h4.23l6.99 16.2L69.352 1h3.9zm17.966 17.73V22h-15.75V1h15.33v3.27h-11.43v5.46h10.14v3.21h-10.14v5.79h11.85zm20.098 0V22h-15.75V1h15.33v3.27h-11.43v5.46h10.14v3.21h-10.14v5.79h11.85z" fill="#333"/></svg>